<svg xmlns="http://www.w3.org/2000/svg" width="1440" height="900" viewBox="0 0 1440 900" role="img">
  <title>NIR - beds</title>
  <desc>Bed Map Fictitious data; no real patient, staff, or institicuon information.</desc>
  <defs>
    <filter id="shadow" x="-15%" y="-15%" width="130%" height="130%"><feDropShadow dx="0" dy="18" stdDeviation="18" flood-color="#0f172a" flood-opacity=".13"/></filter>
    <style>.ui{font-family:Inter,Monoe UI,Arial,sans-serif;letter-spacing:0}</style>
  </defs>
  <rect width="1440" height="900" fill="#eef7f4"/>
  <rect x="34" y="28" width="1372" height="824" rx="26" fill="#ffffff" filter="url(#shadow)"/>
  <rect x="34" y="28" width="1372" height="48" rx="26" fill="#f8fafc"/>
  <circle cx="72" cy="52" r="7" fill="#ef4444"/><circle cx="96" cy="52" r="7" fill="#f59e0b"/><circle cx="120" cy="52" r="7" fill="#22c55e"/>
  <rect x="174" y="42" width="412" height="20" rx="10" fill="#e2e8f0"/>
  <text x="82" y="120" class="ui" font-size="28" font-weight="850" fill="#101b2c">UIB Bed Map</text><text x="82" y="147" class="ui" font-size="13" font-weight="600" fill="#65758b">renderBedMap with reservations, blocks, and availability</text><rect x="82" y="162" width="56" height="4" rx="3" fill="#0f766e" stroke="#0f766e"/><rect x="82" y="220" width="260" height="132" rx="16" fill="#ffffff" stroke="#dce5ef"/><text x="106" y="264" class="ui" font-size="22" font-weight="850" fill="#142033">Bed 201</text><rect x="106" y="288" width="128" height="30" rx="15" fill="#fff7ed" stroke="#fff7ed"/><text x="170" y="308" class="ui" font-size="12" font-weight="800" fill="#c2410c" text-anchor="middle">Reserved</text><rect x="374" y="220" width="260" height="132" rx="16" fill="#ffffff" stroke="#dce5ef"/><text x="398" y="264" class="ui" font-size="22" font-weight="850" fill="#142033">Bed 202</text><rect x="398" y="288" width="128" height="30" rx="15" fill="#ecfdf5" stroke="#ecfdf5"/><text x="462" y="308" class="ui" font-size="12" font-weight="800" fill="#047857" text-anchor="middle">Available</text><rect x="666" y="220" width="260" height="132" rx="16" fill="#ffffff" stroke="#dce5ef"/><text x="690" y="264" class="ui" font-size="22" font-weight="850" fill="#142033">Bed 203</text><rect x="690" y="288" width="128" height="30" rx="15" fill="#fee2e2" stroke="#fee2e2"/><text x="754" y="308" class="ui" font-size="12" font-weight="800" fill="#b91c1c" text-anchor="middle">Blocked</text><rect x="958" y="220" width="260" height="132" rx="16" fill="#ffffff" stroke="#dce5ef"/><text x="982" y="264" class="ui" font-size="22" font-weight="850" fill="#142033">Bed 204</text><rect x="982" y="288" width="128" height="30" rx="15" fill="#eff6ff" stroke="#eff6ff"/><text x="1046" y="308" class="ui" font-size="12" font-weight="800" fill="#1d4ed8" text-anchor="middle">Occupied</text><rect x="82" y="386" width="260" height="132" rx="16" fill="#ffffff" stroke="#dce5ef"/><text x="106" y="430" class="ui" font-size="22" font-weight="850" fill="#142033">Bed 205</text><rect x="106" y="454" width="128" height="30" rx="15" fill="#ecfdf5" stroke="#ecfdf5"/><text x="170" y="474" class="ui" font-size="12" font-weight="800" fill="#047857" text-anchor="middle">Available</text><rect x="374" y="386" width="260" height="132" rx="16" fill="#ffffff" stroke="#dce5ef"/><text x="398" y="430" class="ui" font-size="22" font-weight="850" fill="#142033">Bed 206</text><rect x="398" y="454" width="128" height="30" rx="15" fill="#fff7ed" stroke="#fff7ed"/><text x="462" y="474" class="ui" font-size="12" font-weight="800" fill="#c2410c" text-anchor="middle">Reserved</text><rect x="666" y="386" width="260" height="132" rx="16" fill="#ffffff" stroke="#dce5ef"/><text x="690" y="430" class="ui" font-size="22" font-weight="850" fill="#142033">Bed 207</text><rect x="690" y="454" width="128" height="30" rx="15" fill="#eff6ff" stroke="#eff6ff"/><text x="754" y="474" class="ui" font-size="12" font-weight="800" fill="#1d4ed8" text-anchor="middle">Occupied</text><rect x="958" y="386" width="260" height="132" rx="16" fill="#ffffff" stroke="#dce5ef"/><text x="982" y="430" class="ui" font-size="22" font-weight="850" fill="#142033">Bed 208</text><rect x="982" y="454" width="128" height="30" rx="15" fill="#fee2e2" stroke="#fee2e2"/><text x="1046" y="474" class="ui" font-size="12" font-weight="800" fill="#b91c1c" text-anchor="middle">Blocked</text><rect x="82" y="596" width="1170" height="188" rx="12" fill="#ffffff" stroke="#dce5ef"/><text x="100" y="626" class="ui" font-size="16" font-weight="800" fill="#142033">Bed Events</text><rect x="98" y="640" width="1138" height="34" rx="8" fill="#f2f6fa" stroke="#f2f6fa"/><text x="110" y="662" class="ui" font-size="11" font-weight="800" fill="#617187">Action</text><text x="389" y="662" class="ui" font-size="11" font-weight="800" fill="#617187">Source</text><text x="668" y="662" class="ui" font-size="11" font-weight="800" fill="#617187">Field</text><text x="947" y="662" class="ui" font-size="11" font-weight="800" fill="#617187">Status</text><line x1="100" y1="676" x2="1234" y2="676" stroke="#e7edf4" stroke-width="1" stroke-linecap="round"/><text x="110" y="698" class="ui" font-size="12" font-weight="600" fill="#2b3b4f">Reservation</text><text x="389" y="698" class="ui" font-size="12" font-weight="600" fill="#2b3b4f">drawer</text><text x="668" y="698" class="ui" font-size="12" font-weight="600" fill="#2b3b4f">shift badge</text><rect x="947" y="678" width="112" height="26" rx="13" fill="#e6f7ef" stroke="#e6f7ef"/><text x="1003" y="696" class="ui" font-size="12" font-weight="800" fill="#13704c" text-anchor="middle">OK</text><line x1="100" y1="718" x2="1234" y2="718" stroke="#e7edf4" stroke-width="1" stroke-linecap="round"/><text x="110" y="740" class="ui" font-size="12" font-weight="600" fill="#2b3b4f">Procedure</text><text x="389" y="740" class="ui" font-size="12" font-weight="600" fill="#2b3b4f">calendar</text><text x="668" y="740" class="ui" font-size="12" font-weight="600" fill="#2b3b4f">renderProcedureCalendar...</text><rect x="947" y="720" width="112" height="26" rx="13" fill="#e6f7ef" stroke="#e6f7ef"/><text x="1003" y="738" class="ui" font-size="12" font-weight="800" fill="#13704c" text-anchor="middle">OK</text><line x1="100" y1="760" x2="1234" y2="760" stroke="#e7edf4" stroke-width="1" stroke-linecap="round"/><text x="110" y="782" class="ui" font-size="12" font-weight="600" fill="#2b3b4f">Report</text><text x="389" y="782" class="ui" font-size="12" font-weight="600" fill="#2b3b4f">daily</text><text x="668" y="782" class="ui" font-size="12" font-weight="600" fill="#2b3b4f">renderDailyReport</text><rect x="947" y="762" width="112" height="26" rx="13" fill="#fff6df" stroke="#fff6df"/><text x="1003" y="780" class="ui" font-size="12" font-weight="800" fill="#9a6208" text-anchor="middle">Pending</text>
  <text x="1076" y="832" class="ui" font-size="11" fill="#8a98ab">Demo screen based on repository code - fictitious data</text>
</svg>