<svg xmlns="http://www.w3.org/2000/svg" width="1440" height="900" viewBox="0 0 1440 900" role="img">
  <title>NIR - report</title>
  <desc>Report diario NIR Fictitious data; no real patient, staff, or institicuon information.</desc>
  <defs>
    <filter id="shadow" x="-15%" y="-15%" width="130%" height="130%"><feDropShadow dx="0" dy="18" stdDeviation="18" flood-color="#0f172a" flood-opacity=".13"/></filter>
    <style>.ui{font-family:Inter,Monoe UI,Arial,sans-serif;letter-spacing:0}</style>
  </defs>
  <rect width="1440" height="900" fill="#eef7f4"/>
  <rect x="34" y="28" width="1372" height="824" rx="26" fill="#ffffff" filter="url(#shadow)"/>
  <rect x="34" y="28" width="1372" height="48" rx="26" fill="#f8fafc"/>
  <circle cx="72" cy="52" r="7" fill="#ef4444"/><circle cx="96" cy="52" r="7" fill="#f59e0b"/><circle cx="120" cy="52" r="7" fill="#22c55e"/>
  <rect x="174" y="42" width="412" height="20" rx="10" fill="#e2e8f0"/>
  <text x="82" y="120" class="ui" font-size="28" font-weight="850" fill="#101b2c">Report diario</text><text x="82" y="147" class="ui" font-size="13" font-weight="600" fill="#65758b">Shift fields and procedure calendar</text><rect x="82" y="162" width="56" height="4" rx="3" fill="#0f766e" stroke="#0f766e"/><rect x="82" y="216" width="560" height="428" rx="16" fill="#ffffff" stroke="#dce5ef"/><text x="112" y="256" class="ui" font-size="20" font-weight="850" fill="#142033">daily-report</text><text x="112" y="298" class="ui" font-size="11" font-weight="800" fill="#66758a">Turno</text><rect x="112" y="306" width="460" height="42" rx="9" fill="#f7fafc" stroke="#d8e1ed"/><text x="126" y="336" class="ui" font-size="13" font-weight="600" fill="#26364a">fictitious data</text><text x="112" y="364" class="ui" font-size="11" font-weight="800" fill="#66758a">Unit</text><rect x="112" y="372" width="460" height="42" rx="9" fill="#f7fafc" stroke="#d8e1ed"/><text x="126" y="402" class="ui" font-size="13" font-weight="600" fill="#26364a">fictitious data</text><text x="112" y="430" class="ui" font-size="11" font-weight="800" fill="#66758a">Owner</text><rect x="112" y="438" width="460" height="42" rx="9" fill="#f7fafc" stroke="#d8e1ed"/><text x="126" y="468" class="ui" font-size="13" font-weight="600" fill="#26364a">fictitious data</text><text x="112" y="496" class="ui" font-size="11" font-weight="800" fill="#66758a">Pending Items</text><rect x="112" y="504" width="460" height="42" rx="9" fill="#f7fafc" stroke="#d8e1ed"/><text x="126" y="534" class="ui" font-size="13" font-weight="600" fill="#26364a">fictitious data</text><text x="112" y="562" class="ui" font-size="11" font-weight="800" fill="#66758a">Notes</text><rect x="112" y="570" width="460" height="42" rx="9" fill="#f7fafc" stroke="#d8e1ed"/><text x="126" y="600" class="ui" font-size="13" font-weight="600" fill="#26364a">fictitious data</text><rect x="112" y="594" width="170" height="40" rx="10" fill="#0f766e" stroke="#0f766e"/><text x="197" y="619" class="ui" font-size="13" font-weight="800" fill="#ffffff" text-anchor="middle">Save report</text><rect x="682" y="216" width="570" height="428" rx="16" fill="#ffffff" stroke="#dce5ef"/><text x="712" y="256" class="ui" font-size="20" font-weight="850" fill="#142033">Procedure calendar</text><rect x="712" y="292" width="500" height="188" rx="12" fill="#ffffff" stroke="#dce5ef"/><rect x="728" y="306" width="468" height="34" rx="8" fill="#f2f6fa" stroke="#f2f6fa"/><text x="740" y="328" class="ui" font-size="11" font-weight="800" fill="#617187">Hora</text><text x="852" y="328" class="ui" font-size="11" font-weight="800" fill="#617187">Patient</text><text x="964" y="328" class="ui" font-size="11" font-weight="800" fill="#617187">Proced.</text><text x="1076" y="328" class="ui" font-size="11" font-weight="800" fill="#617187">Status</text><line x1="730" y1="342" x2="1194" y2="342" stroke="#e7edf4" stroke-width="1" stroke-linecap="round"/><text x="740" y="364" class="ui" font-size="12" font-weight="600" fill="#2b3b4f">08:00</text><text x="852" y="364" class="ui" font-size="12" font-weight="600" fill="#2b3b4f">Ficticio</text><text x="964" y="364" class="ui" font-size="12" font-weight="600" fill="#2b3b4f">Imagem</text><rect x="1076" y="344" width="96" height="26" rx="13" fill="#e6f7ef" stroke="#e6f7ef"/><text x="1124" y="362" class="ui" font-size="12" font-weight="800" fill="#13704c" text-anchor="middle">Today</text><line x1="730" y1="384" x2="1194" y2="384" stroke="#e7edf4" stroke-width="1" stroke-linecap="round"/><text x="740" y="406" class="ui" font-size="12" font-weight="600" fill="#2b3b4f">10:30</text><text x="852" y="406" class="ui" font-size="12" font-weight="600" fill="#2b3b4f">Ficticio</text><text x="964" y="406" class="ui" font-size="12" font-weight="600" fill="#2b3b4f">Cirurgia</text><rect x="1076" y="386" width="96" height="26" rx="13" fill="#e6f7ef" stroke="#e6f7ef"/><text x="1124" y="404" class="ui" font-size="12" font-weight="800" fill="#13704c" text-anchor="middle">Acompanhar</text><line x1="730" y1="426" x2="1194" y2="426" stroke="#e7edf4" stroke-width="1" stroke-linecap="round"/><text x="740" y="448" class="ui" font-size="12" font-weight="600" fill="#2b3b4f">14:00</text><text x="852" y="448" class="ui" font-size="12" font-weight="600" fill="#2b3b4f">Ficticio</text><text x="964" y="448" class="ui" font-size="12" font-weight="600" fill="#2b3b4f">Exame</text><rect x="1076" y="428" width="96" height="26" rx="13" fill="#e6f7ef" stroke="#e6f7ef"/><text x="1124" y="446" class="ui" font-size="12" font-weight="800" fill="#13704c" text-anchor="middle">OK</text><rect x="82" y="684" width="1170" height="76" rx="14" fill="#ffffff" stroke="#dce5ef"/><rect x="112" y="708" width="250" height="30" rx="15" fill="#e6f7ef" stroke="#e6f7ef"/><text x="237" y="728" class="ui" font-size="12" font-weight="800" fill="#0f766e" text-anchor="middle">renderProcedureCalendarSurface</text><rect x="392" y="708" width="250" height="30" rx="15" fill="#e6f7ef" stroke="#e6f7ef"/><text x="517" y="728" class="ui" font-size="12" font-weight="800" fill="#0f766e" text-anchor="middle">renderFlow</text><rect x="672" y="708" width="250" height="30" rx="15" fill="#e6f7ef" stroke="#e6f7ef"/><text x="797" y="728" class="ui" font-size="12" font-weight="800" fill="#0f766e" text-anchor="middle">renderDashboard</text><rect x="952" y="708" width="250" height="30" rx="15" fill="#e6f7ef" stroke="#e6f7ef"/><text x="1077" y="728" class="ui" font-size="12" font-weight="800" fill="#0f766e" text-anchor="middle">renderDailyReport</text>
  <text x="1076" y="832" class="ui" font-size="11" fill="#8a98ab">Demo screen based on repository code - fictitious data</text>
</svg>