<svg xmlns="http://www.w3.org/2000/svg" width="1440" height="900" viewBox="0 0 1440 900" role="img">
  <title>NIR - situation</title>
  <desc>NIR situation room Fictitious data; no real patient, staff, or institicuon information.</desc>
  <defs>
    <filter id="shadow" x="-15%" y="-15%" width="130%" height="130%"><feDropShadow dx="0" dy="18" stdDeviation="18" flood-color="#0f172a" flood-opacity=".13"/></filter>
    <style>.ui{font-family:Inter,Monoe UI,Arial,sans-serif;letter-spacing:0}</style>
  </defs>
  <rect width="1440" height="900" fill="#eef7f4"/>
  <rect x="34" y="28" width="1372" height="824" rx="26" fill="#ffffff" filter="url(#shadow)"/>
  <rect x="34" y="28" width="1372" height="48" rx="26" fill="#f8fafc"/>
  <circle cx="72" cy="52" r="7" fill="#ef4444"/><circle cx="96" cy="52" r="7" fill="#f59e0b"/><circle cx="120" cy="52" r="7" fill="#22c55e"/>
  <rect x="174" y="42" width="412" height="20" rx="10" fill="#e2e8f0"/>
  <rect x="60" y="102" width="230" height="700" rx="18" fill="#f8fbff" stroke="#dce5ef"/><circle cx="92" cy="136" r="18" fill="#0f766e" stroke="none" stroke-width="1"/><text x="120" y="140" class="ui" font-size="19" font-weight="850" fill="#142033">NIR</text><text x="84" y="174" class="ui" font-size="11" font-weight="800" fill="#66758a">system menu</text><rect x="76" y="182" width="198" height="40" rx="10" fill="#e8f1ff" stroke="#cbdff8"/><text x="94" y="207" class="ui" font-size="13" font-weight="800" fill="#0f766e">Sala situation</text><text x="94" y="255" class="ui" font-size="13" font-weight="650" fill="#66758a">Beds UIB</text><text x="94" y="303" class="ui" font-size="13" font-weight="650" fill="#66758a">Procedures</text><text x="94" y="351" class="ui" font-size="13" font-weight="650" fill="#66758a">Report</text><text x="326" y="120" class="ui" font-size="28" font-weight="850" fill="#101b2c">Situation room</text><text x="326" y="147" class="ui" font-size="13" font-weight="600" fill="#65758b">renderDashboard, flow, and shift pending items</text><rect x="326" y="162" width="56" height="4" rx="3" fill="#0f766e" stroke="#0f766e"/><rect x="326" y="212" width="202" height="98" rx="14" fill="#eff6ff" stroke="#eff6ff"/><text x="344" y="242" class="ui" font-size="12" font-weight="800" fill="#1d4ed8">Regulactions</text><text x="344" y="280" class="ui" font-size="30" font-weight="850" fill="#1d4ed8">37</text><text x="510" y="280" class="ui" font-size="11" font-weight="700" fill="#1d4ed8" text-anchor="end">ativas</text><rect x="550" y="212" width="202" height="98" rx="14" fill="#fff7ed" stroke="#fff7ed"/><text x="568" y="242" class="ui" font-size="12" font-weight="800" fill="#c2410c">Reservations</text><text x="568" y="280" class="ui" font-size="30" font-weight="850" fill="#c2410c">12</text><text x="734" y="280" class="ui" font-size="11" font-weight="700" fill="#c2410c" text-anchor="end">UIB</text><rect x="774" y="212" width="202" height="98" rx="14" fill="#fee2e2" stroke="#fee2e2"/><text x="792" y="242" class="ui" font-size="12" font-weight="800" fill="#b91c1c">Pending Items</text><text x="792" y="280" class="ui" font-size="30" font-weight="850" fill="#b91c1c">08</text><text x="958" y="280" class="ui" font-size="11" font-weight="700" fill="#b91c1c" text-anchor="end">shift</text><rect x="998" y="212" width="202" height="98" rx="14" fill="#ecfdf5" stroke="#ecfdf5"/><text x="1016" y="242" class="ui" font-size="12" font-weight="800" fill="#047857">Altas ICU</text><text x="1016" y="280" class="ui" font-size="30" font-weight="850" fill="#047857">05</text><text x="1182" y="280" class="ui" font-size="11" font-weight="700" fill="#047857" text-anchor="end">today</text><rect x="326" y="358" width="866" height="188" rx="12" fill="#ffffff" stroke="#dce5ef"/><text x="344" y="388" class="ui" font-size="16" font-weight="800" fill="#142033">Follow-up queue</text><rect x="342" y="402" width="834" height="34" rx="8" fill="#f2f6fa" stroke="#f2f6fa"/><text x="354" y="424" class="ui" font-size="11" font-weight="800" fill="#617187">Item</text><text x="557" y="424" class="ui" font-size="11" font-weight="800" fill="#617187">Unit</text><text x="760" y="424" class="ui" font-size="11" font-weight="800" fill="#617187">Owner</text><text x="963" y="424" class="ui" font-size="11" font-weight="800" fill="#617187">Status</text><line x1="344" y1="438" x2="1174" y2="438" stroke="#e7edf4" stroke-width="1" stroke-linecap="round"/><text x="354" y="460" class="ui" font-size="12" font-weight="600" fill="#2b3b4f">Reservation UIB</text><text x="557" y="460" class="ui" font-size="12" font-weight="600" fill="#2b3b4f">Bed 201</text><text x="760" y="460" class="ui" font-size="12" font-weight="600" fill="#2b3b4f">NIR</text><rect x="963" y="440" width="112" height="26" rx="13" fill="#e6f7ef" stroke="#e6f7ef"/><text x="1019" y="458" class="ui" font-size="12" font-weight="800" fill="#13704c" text-anchor="middle">Acompanhar</text><line x1="344" y1="480" x2="1174" y2="480" stroke="#e7edf4" stroke-width="1" stroke-linecap="round"/><text x="354" y="502" class="ui" font-size="12" font-weight="600" fill="#2b3b4f">Procedure</text><text x="557" y="502" class="ui" font-size="12" font-weight="600" fill="#2b3b4f">Imagem</text><text x="760" y="502" class="ui" font-size="12" font-weight="600" fill="#2b3b4f">Team</text><rect x="963" y="482" width="112" height="26" rx="13" fill="#e6f7ef" stroke="#e6f7ef"/><text x="1019" y="500" class="ui" font-size="12" font-weight="800" fill="#13704c" text-anchor="middle">Today</text><line x1="344" y1="522" x2="1174" y2="522" stroke="#e7edf4" stroke-width="1" stroke-linecap="round"/><text x="354" y="544" class="ui" font-size="12" font-weight="600" fill="#2b3b4f">Bloqueio</text><text x="557" y="544" class="ui" font-size="12" font-weight="600" fill="#2b3b4f">Bed</text><text x="760" y="544" class="ui" font-size="12" font-weight="600" fill="#2b3b4f">Manager</text><rect x="963" y="524" width="112" height="26" rx="13" fill="#e6f7ef" stroke="#e6f7ef"/><text x="1019" y="542" class="ui" font-size="12" font-weight="800" fill="#13704c" text-anchor="middle">Open</text><rect x="326" y="626" width="422" height="176" rx="12" fill="#ffffff" stroke="#dce5ef"/><text x="344" y="656" class="ui" font-size="15" font-weight="800" fill="#142033">Daily flow</text><line x1="348" y1="768" x2="726" y2="768" stroke="#d6dfeb" stroke-width="1" stroke-linecap="round"/><polyline points="356,768 428,740 500,759 573,703 645,721 718,674" fill="none" stroke="#0f766e" stroke-width="5" stroke-linecap="round" stroke-linejoin="round"/><circle cx="573" cy="703" r="6" fill="#0f766e" stroke="none" stroke-width="1"/><circle cx="645" cy="721" r="6" fill="#0f766e" stroke="none" stroke-width="1"/><circle cx="718" cy="674" r="6" fill="#0f766e" stroke="none" stroke-width="1"/><rect x="774" y="626" width="418" height="176" rx="12" fill="#ffffff" stroke="#dce5ef"/><text x="792" y="656" class="ui" font-size="15" font-weight="800" fill="#142033">Categorys</text><rect x="804" y="703" width="72" height="65" rx="5" fill="#1d4ed8" stroke="#1d4ed8" opacity="0.52"/><text x="840" y="788" class="ui" font-size="10" font-weight="700" fill="#738196" text-anchor="middle">Res</text><rect x="894" y="725" width="72" height="43" rx="5" fill="#1d4ed8" stroke="#1d4ed8" opacity="0.59"/><text x="930" y="788" class="ui" font-size="10" font-weight="700" fill="#738196" text-anchor="middle">Proc</text><rect x="984" y="670" width="72" height="98" rx="5" fill="#1d4ed8" stroke="#1d4ed8" opacity="0.66"/><text x="1020" y="788" class="ui" font-size="10" font-weight="700" fill="#738196" text-anchor="middle">Pend</text><rect x="1074" y="736" width="72" height="32" rx="5" fill="#1d4ed8" stroke="#1d4ed8" opacity="0.73"/><text x="1110" y="788" class="ui" font-size="10" font-weight="700" fill="#738196" text-anchor="middle">Alta</text><line x1="798" y1="768" x2="1168" y2="768" stroke="#d6dfeb" stroke-width="1" stroke-linecap="round"/>
  <text x="1076" y="832" class="ui" font-size="11" fill="#8a98ab">Demo screen based on repository code - fictitious data</text>
</svg>